# xmcd
#
# Track frame offsets:
# 150
# 19160
# 36465
# 56365
# 75862
# 95355
# 114595
# 122280
# 137297
# 153807
# 170737
#
# Disc length: 2799 seconds
#
#
# Revision: 1
# Processed by: cddbd v1.5.1PL0 Copyright (c) Steve Scherf et al.
# Submitted via: FreeRIP 2.942 
#
DISCID=780aed0b
DTITLE=Kathleen Vandenhoudt - Heart and Wings
DYEAR=2003
DGENRE=blues
TTITLE0=I miss it all
TTITLE1=My prayer
TTITLE2=Heart and Wings
TTITLE3=Play me
TTITLE4=King of taboo
TTITLE5=I hear you
TTITLE6=Good-vibes blues
TTITLE7=Fallen pilgrim
TTITLE8=Let fear go
TTITLE9=Never forget
TTITLE10=(sitting on) The hill
EXTD=
EXTT0=
EXTT1=
EXTT2=
EXTT3=
EXTT4=
EXTT5=
EXTT6=
EXTT7=
EXTT8=
EXTT9=
EXTT10=
PLAYORDER=
